<svg width="78" height="78" viewBox="0 0 78 78" fill="none" xmlns="http://www.w3.org/2000/svg">
<g clip-path="url(#clip0_1_2)">
<mask id="mask0_1_2" style="mask-type:luminance" maskUnits="userSpaceOnUse" x="0" y="0" width="78" height="78">
<path d="M78 0H0V78H78V0Z" fill="white"/>
</mask>
<g mask="url(#mask0_1_2)">
<path fill-rule="evenodd" clip-rule="evenodd" d="M47.3179 35C48.7987 35.0001 49.9993 36.2402 49.9993 37.7699V46.0797C49.9993 47.6094 48.7988 48.8495 47.3179 48.8495H31.9457C30.641 48.9064 29.5803 49.923 29.4065 51.2354V58.2301C29.4064 59.7597 28.2058 60.9999 26.7252 61H18.6808C17.1999 61 15.9995 59.7598 15.9993 58.2301V49.9204C15.9993 48.3907 17.1999 47.1504 18.6808 47.1504H25.1802C26.5975 47.0769 27.7251 45.87 27.7252 44.3879V37.7699C27.7253 36.2402 28.9258 35 30.4067 35H47.3179Z" fill="url(#paint0_linear_1_2)"/>
<path fill-rule="evenodd" clip-rule="evenodd" d="M55.4489 17C56.9727 17 58.2083 18.2028 58.2086 19.6857V25.9304C58.2329 27.3929 59.4574 28.5709 60.9658 28.5713H67.2396C68.7633 28.5716 69.9989 29.7742 69.9993 31.257V39.3143C69.9989 40.7971 68.7633 41.9996 67.2396 42H58.9605C57.4369 41.9996 56.2011 40.7971 56.2009 39.3143V33.0342C56.1645 31.6525 55.058 30.5325 53.6568 30.4286H24.4084C22.9979 30.4986 21.8697 31.5967 21.7976 32.9694V39.3143C21.7974 40.7972 20.5619 42 19.0379 42H10.759C9.23555 41.9994 7.99955 40.797 7.9993 39.3143V31.257C7.99955 29.7744 9.23555 28.5719 10.759 28.5713H17.5764C18.9157 28.472 19.987 27.4445 20.1109 26.1472V19.6857C20.1111 18.2029 21.3469 17.0004 22.8704 17H55.4489Z" fill="url(#paint1_linear_1_2)"/>
</g>
</g>
<defs>
<linearGradient id="paint0_linear_1_2" x1="38.8612" y1="16.084" x2="38.8612" y2="61.15" gradientUnits="userSpaceOnUse">
<stop stop-color="white"/>
</linearGradient>
<linearGradient id="paint1_linear_1_2" x1="39.1677" y1="16.9994" x2="39.1677" y2="60.6956" gradientUnits="userSpaceOnUse">
<stop stop-color="white"/>
</linearGradient>
<clipPath id="clip0_1_2">
<rect width="78" height="78" fill="white"/>
</clipPath>
</defs>
</svg>
