<svg width="16" height="16" viewBox="0 0 16 16" fill="none" xmlns="http://www.w3.org/2000/svg">
<g opacity="0.7">
<path fill-rule="evenodd" clip-rule="evenodd" d="M5.91579 10.0846C5.90735 10.076 5.89886 10.0675 5.89033 10.059C5.36641 9.53504 4.74185 9.1731 4.07888 8.97314L4.07774 8.97274C3.92608 8.92409 3.77195 8.88352 3.616 8.85118L3.49249 8.82254C3.16255 8.74518 2.83089 8.65049 2.60556 8.42249C2.22862 8.0427 2.42608 7.44034 2.61805 6.99445L2.72426 6.75602L2.81291 6.57127C3.00098 6.19405 3.26264 5.79088 3.65736 5.6792C3.91146 5.60751 4.17196 5.61824 4.43285 5.62898L4.60245 5.63573C4.71592 5.63863 4.82941 5.63856 4.94175 5.62772C6.39308 3.54803 8.25916 2.72573 9.82098 2.47961C10.6124 2.3548 11.3242 2.37776 11.8674 2.4555L12.0978 2.49C12.4559 2.54838 12.8568 2.64518 13.1024 2.89357L13.1046 2.89583L13.1069 2.89807C13.3552 3.14361 13.452 3.54454 13.5104 3.90265L13.5449 4.13304C13.6227 4.67621 13.6456 5.38807 13.5208 6.17944C13.2747 7.74126 12.4524 9.60735 10.3727 11.0587C10.3619 11.171 10.3618 11.2845 10.3647 11.398L10.3715 11.5678C10.3822 11.8287 10.3929 12.089 10.3212 12.3431C10.2095 12.7378 9.80638 12.9994 9.42916 13.1875L9.2444 13.2762L9.00598 13.3824C8.56008 13.5743 7.95773 13.7718 7.57793 13.3949C7.34993 13.1695 7.25524 12.8379 7.17788 12.5079L7.14925 12.3844C7.11691 12.2285 7.07633 12.0743 7.02768 11.9227L7.02729 11.9215C6.82733 11.2586 6.46539 10.634 5.94147 10.1101C5.93294 10.1016 5.92438 10.0931 5.91579 10.0846ZM10.1353 5.83957C10.1396 5.84384 10.1438 5.84814 10.148 5.85247C10.1502 5.85464 10.1524 5.85681 10.1547 5.85899C10.1567 5.86101 10.1588 5.86304 10.1609 5.86507C10.3859 6.08812 10.5131 6.39141 10.5144 6.70823C10.5158 7.02505 10.3913 7.32945 10.1683 7.55446C9.94523 7.77946 9.64193 7.90665 9.32511 7.90804C9.00829 7.90943 8.7039 7.78491 8.47889 7.56187C8.47213 7.55517 8.46546 7.5484 8.45887 7.54155C8.45203 7.53496 8.44525 7.52829 8.43856 7.52154C8.21551 7.29653 8.09099 6.99213 8.09238 6.67531C8.09377 6.35849 8.22096 6.0552 8.44597 5.83215C8.67098 5.60911 8.97537 5.48459 9.29219 5.48598C9.60901 5.48737 9.91231 5.61456 10.1353 5.83957ZM3.1908 13.4845C4.02919 13.1446 5.11462 12.6699 5.39954 12.385C5.88087 11.9037 5.88087 11.1233 5.39954 10.642C4.91821 10.1606 4.13783 10.1606 3.6565 10.642C3.37158 10.9269 2.89691 12.0123 2.55697 12.8507C2.39235 13.2567 2.78482 13.6491 3.1908 13.4845Z" fill="url(#paint0_linear_11189_2481)"/>
<ellipse cx="9.3085" cy="6.70484" rx="1.19545" ry="1.19545" transform="rotate(75 9.3085 6.70484)" fill="url(#paint1_linear_11189_2481)"/>
</g>
<defs>
<linearGradient id="paint0_linear_11189_2481" x1="13.1045" y1="2.89586" x2="5.09166" y2="10.9087" gradientUnits="userSpaceOnUse">
<stop stop-color="white"/>
<stop offset="1" stop-color="white" stop-opacity="0.8"/>
</linearGradient>
<linearGradient id="paint1_linear_11189_2481" x1="8.11305" y1="6.70484" x2="10.5039" y2="6.70484" gradientUnits="userSpaceOnUse">
<stop/>
<stop offset="1" stop-color="#B2B2B2"/>
</linearGradient>
</defs>
</svg>
