<svg width="78" height="78" viewBox="0 0 78 78" fill="none" xmlns="http://www.w3.org/2000/svg">
<g clip-path="url(#clip0_12274_57809)">
<rect width="78" height="78" fill="url(#paint0_linear_12274_57809)"/>
<path fill-rule="evenodd" clip-rule="evenodd" d="M46.1541 36.1538C47.3831 36.1539 48.3796 37.1503 48.3796 38.3794V45.0562C48.3796 46.2853 47.3832 47.2817 46.1541 47.2817H33.3953C32.3124 47.3274 31.432 48.1442 31.2878 49.1987V54.8188C31.2877 56.0478 30.2912 57.0443 29.0623 57.0444H22.3855C21.1564 57.0444 20.1601 56.0479 20.1599 54.8188V48.1421C20.1599 46.913 21.1564 45.9165 22.3855 45.9165H27.78C28.9563 45.8574 29.8922 44.8877 29.8923 43.6968V38.3794C29.8924 37.1503 30.8888 36.1538 32.1179 36.1538H46.1541Z" fill="url(#paint1_linear_12274_57809)"/>
<path fill-rule="evenodd" clip-rule="evenodd" d="M52.2654 20.9556C53.4943 20.9556 54.4907 21.9523 54.491 23.1812V28.356C54.5106 29.5679 55.4981 30.5441 56.7146 30.5444H61.7742C63.003 30.5447 63.9995 31.5412 63.9998 32.77V39.4468C63.9995 40.6756 63.003 41.6721 61.7742 41.6724H55.0974C53.8686 41.6721 52.872 40.6756 52.8718 39.4468V34.2427C52.8425 33.0977 51.9501 32.1696 50.8201 32.0835H27.2322C26.0947 32.1415 25.1848 33.0515 25.1267 34.189V39.4468C25.1265 40.6757 24.1301 41.6724 22.9011 41.6724H16.2244C14.9958 41.6719 13.999 40.6755 13.9988 39.4468V32.77C13.999 31.5414 14.9958 30.5449 16.2244 30.5444H21.7224C22.8025 30.4621 23.6665 29.6107 23.7664 28.5356V23.1812C23.7666 21.9524 24.7632 20.9559 25.9919 20.9556H52.2654Z" fill="url(#paint2_linear_12274_57809)"/>
</g>
<defs>
<linearGradient id="paint0_linear_12274_57809" x1="78" y1="0" x2="-4.64916e-06" y2="78" gradientUnits="userSpaceOnUse">
<stop stop-color="#636363"/>
<stop offset="1" stop-color="#111114"/>
</linearGradient>
<linearGradient id="paint1_linear_12274_57809" x1="39.1351" y1="20.9551" x2="39.1351" y2="57.1649" gradientUnits="userSpaceOnUse">
<stop stop-color="white"/>
<stop offset="1" stop-color="#A9A9A9"/>
</linearGradient>
<linearGradient id="paint2_linear_12274_57809" x1="39.1351" y1="20.9551" x2="39.1351" y2="57.1649" gradientUnits="userSpaceOnUse">
<stop stop-color="white"/>
<stop offset="1" stop-color="#A9A9A9"/>
</linearGradient>
<clipPath id="clip0_12274_57809">
<rect width="78" height="78" fill="white"/>
</clipPath>
</defs>
</svg>
